<?xml version="1.0" encoding="utf-8"?>
<!-- Generator: Adobe Illustrator 25.4.1, SVG Export Plug-In . SVG Version: 6.00 Build 0)  -->
<svg version="1.1" id="Layer_1" xmlns="http://www.w3.org/2000/svg" xmlns:xlink="http://www.w3.org/1999/xlink" x="0px" y="0px"
	 viewBox="0 0 152.95 135.87" style="enable-background:new 0 0 152.95 135.87;" xml:space="preserve">
<style type="text/css">
	.st0{fill:#193B1F;}
	.st1{fill:none;stroke:#FFFFFF;stroke-width:5.4838;stroke-miterlimit:10;}
	.st2{fill:#FFFFFF;stroke:#FFFFFF;stroke-width:0.8226;stroke-miterlimit:10;}
</style>
<rect class="st0" width="152.95" height="135.87"/>
<circle class="st1" cx="76.47" cy="64.2" r="49.73"/>
<g>
	<path class="st2" d="M64.61,81.97v-1.32c4.21-0.26,5.11-0.58,5.11-4.58V51.12c0-2.79-0.84-3.63-4.21-3.63h-3.74
		c-7.63,0-12.27,3.79-12.27,9.9c0,4.21,2.69,7.42,6.32,7.42c1.84,0,2.9-0.68,2.9-1.9c0-1.05-1.05-2-1.05-3.48
		c0-2,1.37-3.21,3.11-3.21c2.16,0,3.32,1.84,3.32,3.9c0,4.26-3.37,7.11-7.9,7.11c-5.48,0-9.32-4-9.32-9.85
		c0-6.74,5.37-12.27,14.9-12.27h19.43c12.06,0,19.74,6.05,19.74,18.43c0,12.37-7.69,18.43-19.74,18.43H64.61z M76.51,47.49
		c-1,0-1.58,0.58-1.58,1.58v28.96c0,1,0.58,1.58,1.58,1.58h4.69c7.84,0,13.95-3,13.95-16.06c0-13.06-6.11-16.06-13.95-16.06H76.51z"
		/>
</g>
</svg>
